<svg width="338" height="297" viewBox="0 0 338 297" fill="none" xmlns="http://www.w3.org/2000/svg">
<path d="M25 19.3335C25 22.279 27.3878 24.6668 30.3333 24.6668C33.2789 24.6668 35.6667 22.279 35.6667 19.3335C35.6667 16.388 33.2789 14.0002 30.3333 14.0002C27.3878 14.0002 25 16.388 25 19.3335ZM121.333 66.8335H122.333V66.0224L121.54 65.855L121.333 66.8335ZM121.333 143.833H120.333V144.384L120.799 144.679L121.333 143.833ZM312.799 266.179L313.644 266.713L314.713 265.023L313.868 264.488L313.333 265.333L312.799 266.179ZM47.8333 51.3335L46.956 51.8133L47.1768 52.217L47.627 52.312L47.8333 51.3335ZM121.333 66.8335H120.333V143.833H121.333H122.333V66.8335H121.333ZM121.333 143.833L120.799 144.679L312.799 266.179L313.333 265.333L313.868 264.488L121.868 142.988L121.333 143.833ZM30.3333 19.3335L29.456 19.8133L46.956 51.8133L47.8333 51.3335L48.7107 50.8537L31.2107 18.8537L30.3333 19.3335ZM47.8333 51.3335L47.627 52.312L121.127 67.812L121.333 66.8335L121.54 65.855L48.0397 50.355L47.8333 51.3335Z" fill="url(#paint0_linear_301_652)"/>
<path d="M48 5.3335C48 8.27901 50.3878 10.6668 53.3333 10.6668C56.2789 10.6668 58.6667 8.27901 58.6667 5.3335C58.6667 2.38798 56.2789 0.000162601 53.3333 0.000162601C50.3878 0.000162601 48 2.38798 48 5.3335ZM144.333 52.8335H145.333V52.0224L144.54 51.855L144.333 52.8335ZM144.333 129.833H143.333V130.384L143.799 130.679L144.333 129.833ZM335.799 252.179L336.644 252.713L337.713 251.023L336.868 250.488L336.333 251.333L335.799 252.179ZM70.8333 37.3335L69.956 37.8133L70.1768 38.217L70.627 38.312L70.8333 37.3335ZM144.333 52.8335H143.333V129.833H144.333H145.333V52.8335H144.333ZM144.333 129.833L143.799 130.679L335.799 252.179L336.333 251.333L336.868 250.488L144.868 128.988L144.333 129.833ZM53.3333 5.3335L52.456 5.81331L69.956 37.8133L70.8333 37.3335L71.7107 36.8537L54.2107 4.85368L53.3333 5.3335ZM70.8333 37.3335L70.627 38.312L144.127 53.812L144.333 52.8335L144.54 51.855L71.0397 36.355L70.8333 37.3335Z" fill="url(#paint1_linear_301_652)"/>
<path d="M1.00136e-05 27.8335C1.00136e-05 30.779 2.38782 33.1668 5.33334 33.1668C8.27886 33.1668 10.6667 30.779 10.6667 27.8335C10.6667 24.888 8.27886 22.5002 5.33334 22.5002C2.38782 22.5002 1.00136e-05 24.888 1.00136e-05 27.8335ZM27.3333 65.8335L26.4679 66.3345L26.6815 66.7035L27.0956 66.8048L27.3333 65.8335ZM98.8333 83.3335H99.8333V82.5487L99.0711 82.3622L98.8333 83.3335ZM98.8333 160.333H97.8333V160.879L98.2922 161.174L98.8333 160.333ZM307.292 295.674L308.133 296.216L309.215 294.534L308.375 293.993L307.833 294.833L307.292 295.674ZM5.33334 27.8335L4.46792 28.3345L26.4679 66.3345L27.3333 65.8335L28.1988 65.3325L6.19877 27.3325L5.33334 27.8335ZM27.3333 65.8335L27.0956 66.8048L98.5956 84.3048L98.8333 83.3335L99.0711 82.3622L27.5711 64.8622L27.3333 65.8335ZM98.8333 83.3335H97.8333V160.333H98.8333H99.8333V83.3335H98.8333ZM98.8333 160.333L98.2922 161.174L307.292 295.674L307.833 294.833L308.375 293.993L99.3745 159.493L98.8333 160.333Z" fill="url(#paint2_linear_301_652)"/>
<defs>
<linearGradient id="paint0_linear_301_652" x1="328.333" y1="270.834" x2="64.8332" y2="31.3338" gradientUnits="userSpaceOnUse">
<stop stop-color="#57AAF0" stop-opacity="0.04"/>
<stop offset="1" stop-color="#1168B2"/>
</linearGradient>
<linearGradient id="paint1_linear_301_652" x1="351.333" y1="256.834" x2="87.8332" y2="17.3338" gradientUnits="userSpaceOnUse">
<stop stop-color="#57AAF0" stop-opacity="0.04"/>
<stop offset="1" stop-color="#1168B2"/>
</linearGradient>
<linearGradient id="paint2_linear_301_652" x1="325.121" y1="311.57" x2="12.9234" y2="46.8447" gradientUnits="userSpaceOnUse">
<stop stop-color="#57AAF0" stop-opacity="0.04"/>
<stop offset="1" stop-color="#1168B2"/>
</linearGradient>
</defs>
</svg>
